<?xml version="1.0" encoding="UTF-8"?>
<svg xmlns="http://www.w3.org/2000/svg" viewBox="0 0 99.13 163.55">
  <defs>
    <style>.cls-1{fill:#f18700;}.cls-2{fill:#404040;}</style>
  </defs>
  <g id="Capa_2" data-name="Capa 2">
    <g id="Capa_1-2" data-name="Capa 1">
      <path class="cls-1" d="M46.31,130.35l-6.75,1.13-.88-5.8a6.14,6.14,0,0,0-.79-2.55q-1.1-1.25-6-1.42c-.78,0-1.64,0-2.59,0q-5.67,0-7.42.63c-1.28.22-2.21,1.49-2.79,3.79a34.8,34.8,0,0,0-.88,8.47l0,7.22v8.94a15.62,15.62,0,0,0,.38,3.18,4.67,4.67,0,0,0,.85,2.21,7.33,7.33,0,0,0,1.82,1,7.4,7.4,0,0,0,2.85.62c1,0,2.48.05,4.4.05,1.51,0,2.81-.06,3.9-.17a27.55,27.55,0,0,0,2.8-.4,4.42,4.42,0,0,0,1.88-.79,8.51,8.51,0,0,0,1.12-1,3.23,3.23,0,0,0,.61-1.44,13.79,13.79,0,0,0,.27-1.69c0-.47.09-1.19.14-2.15s.13-1.77.21-2.44l6.84,1.17c-.16,2.17-.35,3.91-.56,5.21a18.26,18.26,0,0,1-1,3.8,6.88,6.88,0,0,1-1.84,2.77,10.57,10.57,0,0,1-3,1.69,16.58,16.58,0,0,1-4.51,1q-2.57.23-6.4.23c-1.84,0-3.48-.05-4.94-.17a20.21,20.21,0,0,1-4-.68c-1.19-.35-2.24-.68-3.13-1A5.49,5.49,0,0,1,14.51,160c-.68-.81-1.25-1.51-1.71-2.09a7.48,7.48,0,0,1-1.15-2.84c-.31-1.3-.54-2.42-.71-3.33a33.14,33.14,0,0,1-.37-4.2q-.13-2.81-.15-4.77c0-1.31,0-3.2,0-5.67,0-2.23,0-4.15.12-5.78a39.72,39.72,0,0,1,.51-4.67,17.41,17.41,0,0,1,1-3.72,11.41,11.41,0,0,1,1.62-2.77,8,8,0,0,1,2.34-2,14.73,14.73,0,0,1,3.25-1.3,23.84,23.84,0,0,1,4.26-.75c1.54-.14,3.34-.2,5.4-.2a47.46,47.46,0,0,1,6.65.39,18.52,18.52,0,0,1,4.78,1.32,7.79,7.79,0,0,1,3.29,2.6,12.9,12.9,0,0,1,1.88,4.13A28.55,28.55,0,0,1,46.31,130.35Z"></path>
      <path class="cls-2" d="M88.73,162.93H81.22l-.79-5.76q-2.55,6.38-13.31,6.38a31.92,31.92,0,0,1-5.15-.37,11.82,11.82,0,0,1-3.92-1.3,17.49,17.49,0,0,1-2.82-1.9,7.21,7.21,0,0,1-1.93-2.83,30.09,30.09,0,0,1-1.21-3.38,21.75,21.75,0,0,1-.65-4.23c-.14-1.81-.22-3.39-.25-4.74s0-3.17,0-5.48,0-4.2.1-5.84.21-3.27.42-4.88a23.72,23.72,0,0,1,.83-4.07,17,17,0,0,1,1.4-3.19A8,8,0,0,1,56,118.86,13.64,13.64,0,0,1,59,117.19a14.59,14.59,0,0,1,3.92-1,37.54,37.54,0,0,1,5-.29,19.7,19.7,0,0,1,8.37,1.43,8.53,8.53,0,0,1,4.27,4.57V99.57l8.22-.67Zm-8.22-10.64V128q0-3.63-2.25-5t-8.47-1.36a26.72,26.72,0,0,0-7.17.71q-1.92.59-2.59,3.44a35.58,35.58,0,0,0-.67,7.7q0,7.05.25,19.73a4,4,0,0,0,2.24,3.69c1.34.62,4,.94,7.94.94s6.61-.39,8.16-1.17A4.9,4.9,0,0,0,80.51,152.29Z"></path>
      <path class="cls-2" d="M96.89,44.42,52.47,0l0,26.47L75.84,49.82,49.56,76.1l3,2.86V99.57L96.89,55.22A7.64,7.64,0,0,0,96.89,44.42Z"></path>
      <path class="cls-1" d="M2.24,66.18,46.66,110.6l0-26.47L23.29,60.78,49.56,34.5l-3-2.86V11L2.24,55.38A7.62,7.62,0,0,0,2.24,66.18Z"></path>
    </g>
  </g>
</svg>
