<?xml version="1.0" encoding="UTF-8"?>
<svg xmlns="http://www.w3.org/2000/svg" width="419.707" height="80.35" viewBox="0 0 419.707 80.35">
  <g transform="translate(-249.366 -100.548)">
    <g transform="translate(249.366 100.548)">
      <g transform="translate(91.401 15.424)">
        <path d="M23.161,129.863l-4.359.73-.565-3.742a4.009,4.009,0,0,0-.5-1.645c-.473-.534-1.758-.843-3.876-.915H12.192A17.557,17.557,0,0,0,7.4,124.7c-.833.144-1.429.956-1.809,2.447a22.955,22.955,0,0,0-.565,5.459v10.424a9.756,9.756,0,0,0,.247,2.056,2.981,2.981,0,0,0,.545,1.429,4.566,4.566,0,0,0,1.172.658,5.047,5.047,0,0,0,1.84.4h2.837a25.127,25.127,0,0,0,2.519-.113c.709-.072,1.306-.154,1.8-.247A2.993,2.993,0,0,0,17.2,146.7a5.493,5.493,0,0,0,.73-.658,2.221,2.221,0,0,0,.391-.936,9.386,9.386,0,0,0,.175-1.09l.093-1.378a12.009,12.009,0,0,1,.134-1.573l4.41.75c-.1,1.4-.226,2.519-.36,3.362a11.811,11.811,0,0,1-.668,2.447,4.4,4.4,0,0,1-1.192,1.789,6.672,6.672,0,0,1-1.964,1.09,10.972,10.972,0,0,1-2.9.637c-1.11.092-2.488.144-4.112.144a27.767,27.767,0,0,1-3.187-.113,12.481,12.481,0,0,1-2.58-.452c-.771-.216-1.45-.432-2.056-.648a3.588,3.588,0,0,1-1.521-1.079c-.442-.524-.812-.977-1.11-1.347a4.965,4.965,0,0,1-.73-1.83c-.206-.843-.35-1.562-.463-2.159a24.367,24.367,0,0,1-.185-2.7c0-1.2-.082-2.231-.093-3.084s0-2.056,0-3.66c0-1.439,0-2.683.082-3.732a27.593,27.593,0,0,1,.319-3.012,11.247,11.247,0,0,1,.617-2.344,7.2,7.2,0,0,1,1.028-1.789,5.141,5.141,0,0,1,1.5-1.316,9.569,9.569,0,0,1,2.107-.833A15.267,15.267,0,0,1,8.4,120.7c1.028-.093,2.159-.134,3.485-.134a29.622,29.622,0,0,1,4.3.257,11.863,11.863,0,0,1,3.084.843,4.924,4.924,0,0,1,2.128,1.686,8.163,8.163,0,0,1,1.223,2.621A18.154,18.154,0,0,1,23.161,129.863Z" transform="translate(-0.006 -109.55)" fill="#f18700"></path>
        <path d="M40.558,151.277a41.626,41.626,0,0,1-4.976-.247A8.931,8.931,0,0,1,32.159,150a7.659,7.659,0,0,1-2.2-1.748,7.042,7.042,0,0,1-1.182-2.93,24.292,24.292,0,0,1-.524-3.968c-.062-1.316-.093-3.084-.093-5.469,0-1.737,0-3.187.062-4.359a33.918,33.918,0,0,1,.319-3.423,15.068,15.068,0,0,1,.6-2.724,7.606,7.606,0,0,1,1.028-1.964,4.842,4.842,0,0,1,1.542-1.408,9.758,9.758,0,0,1,2.19-.843,14.689,14.689,0,0,1,2.909-.483c1.028-.082,2.3-.123,3.752-.123a34.239,34.239,0,0,1,3.752.123,14.689,14.689,0,0,1,2.909.483,9.758,9.758,0,0,1,2.19.843,4.842,4.842,0,0,1,1.542,1.408,7.607,7.607,0,0,1,1.028,1.964,15.065,15.065,0,0,1,.6,2.724,33.909,33.909,0,0,1,.319,3.423c0,1.172.062,2.621.062,4.359,0,2.334,0,4.112-.093,5.469a24.287,24.287,0,0,1-.524,3.968,7,7,0,0,1-1.2,2.94,7.453,7.453,0,0,1-2.2,1.748,8.985,8.985,0,0,1-3.434,1.028A41.865,41.865,0,0,1,40.558,151.277Zm.062-3.711a21.136,21.136,0,0,0,5.3-.565,1.9,1.9,0,0,0,1.5-1.912q.3-3.835.3-8.9c0-1.11,0-2.7-.144-4.78s-.134-3.608-.134-4.616a2.22,2.22,0,0,0-.144-.833,1.439,1.439,0,0,0-.483-.627,5.09,5.09,0,0,0-.678-.442,2.775,2.775,0,0,0-.936-.3l-1.028-.185a7.273,7.273,0,0,0-1.182-.113H38.183A7.273,7.273,0,0,0,37,124.4l-1.028.185a2.775,2.775,0,0,0-.935.3,5.083,5.083,0,0,0-.679.442,1.439,1.439,0,0,0-.483.627,2.221,2.221,0,0,0-.144.833c0,1.028,0,2.549-.134,4.616s-.134,3.67-.134,4.78q0,5.058.288,8.9a1.974,1.974,0,0,0,1.573,1.953A18.669,18.669,0,0,0,40.62,147.566Z" transform="translate(0.783 -109.55)" fill="#f18700"></path>
        <path d="M83.07,151.176H78.228l-.514-3.711q-1.635,4.112-8.584,4.112a20.162,20.162,0,0,1-3.32-.247,7.476,7.476,0,0,1-2.529-.833,10.851,10.851,0,0,1-1.809-1.223,4.616,4.616,0,0,1-1.254-1.83,19.718,19.718,0,0,1-.781-2.179,14.657,14.657,0,0,1-.421-2.724c-.082-1.172-.144-2.19-.154-3.084s0-2.056,0-3.547,0-2.7.072-3.763.134-2.056.267-3.146a15.177,15.177,0,0,1,.535-2.621,10.425,10.425,0,0,1,.9-2.056,5.14,5.14,0,0,1,1.357-1.6,9.133,9.133,0,0,1,1.892-1.079,9.88,9.88,0,0,1,2.529-.658,25.509,25.509,0,0,1,3.238-.185,12.687,12.687,0,0,1,5.387.925,5.459,5.459,0,0,1,2.755,2.95V110.282l5.3-.432Zm-5.3-6.867V128.632a3.444,3.444,0,0,0-1.449-3.207q-1.45-.874-5.459-.874a17.478,17.478,0,0,0-4.626.452,2.683,2.683,0,0,0-1.665,2.221,22.742,22.742,0,0,0-.432,4.965q0,4.554.154,12.727a2.632,2.632,0,0,0,1.439,2.385,14.32,14.32,0,0,0,5.14.6,12.84,12.84,0,0,0,5.263-.75A3.166,3.166,0,0,0,77.765,144.309Z" transform="translate(1.643 -109.85)" fill="#404040"></path>
        <path d="M113.234,135.7c-2.149.216-3.485.339-4,.37H94.565q0,3.9.216,8.563a2.519,2.519,0,0,0,1.552,2.375,16.868,16.868,0,0,0,5.5.576,24.334,24.334,0,0,0,2.632-.113,6,6,0,0,0,1.789-.432,5.55,5.55,0,0,0,1.028-.6,1.645,1.645,0,0,0,.576-.884,7.184,7.184,0,0,0,.247-1.028c0-.278.072-.7.1-1.264s.082-1.028.134-1.378l4.112.75a25.218,25.218,0,0,1-.267,3.187,7.867,7.867,0,0,1-.73,2.3,4.925,4.925,0,0,1-1.213,1.573,5.739,5.739,0,0,1-1.881.956,12.26,12.26,0,0,1-2.611.493c-.946.082-2.128.123-3.526.123a30.972,30.972,0,0,1-4.678-.308,21.925,21.925,0,0,1-3.4-.771,5.057,5.057,0,0,1-2.323-1.491,11.062,11.062,0,0,1-1.439-1.974,8.1,8.1,0,0,1-.771-2.776c-.164-1.213-.267-2.323-.308-3.32s-.072-2.375-.072-4.112c0-2.477,0-4.4.1-5.777a26.35,26.35,0,0,1,.524-4.112,7.455,7.455,0,0,1,1.193-3.094,7.051,7.051,0,0,1,2.149-1.748,8.841,8.841,0,0,1,3.372-1.028,42.857,42.857,0,0,1,4.914-.226,31.353,31.353,0,0,1,3.588.123,12.6,12.6,0,0,1,2.765.493,8.923,8.923,0,0,1,2.056.863,4.524,4.524,0,0,1,1.449,1.419,7.856,7.856,0,0,1,.966,1.953,14.4,14.4,0,0,1,.555,2.673,33.589,33.589,0,0,1,.267,3.382C113.224,132.578,113.234,134,113.234,135.7ZM94.6,133.257H107.96c0-2.3-.123-4.4-.267-6.3a2.323,2.323,0,0,0-1.419-2.19,13.787,13.787,0,0,0-4.77-.555,16.254,16.254,0,0,0-4.873.432,1.839,1.839,0,0,0-.792.473,2.5,2.5,0,0,0-.555.956,8.675,8.675,0,0,0-.329,1.151,11.3,11.3,0,0,0-.2,1.5c0,.637-.072,1.121-.093,1.47s0,.884,0,1.6-.072,1.2-.072,1.46Z" transform="translate(2.494 -109.551)" fill="#404040"></path>
        <path d="M141.475,121.34l-9.766,29.514h-5.757L116.7,121.34h4.976l7.2,24.909,7.2-24.909Z" transform="translate(3.264 -109.528)" fill="#404040"></path>
        <path d="M168.952,135.7q-3.218.329-4.009.37h-14.66q0,3.9.216,8.563a2.519,2.519,0,0,0,1.542,2.375,16.943,16.943,0,0,0,5.51.576,24.476,24.476,0,0,0,2.632-.113,6.08,6.08,0,0,0,1.789-.432,5.886,5.886,0,0,0,1.079-.6,1.645,1.645,0,0,0,.576-.884,7.2,7.2,0,0,0,.247-1.028c0-.278.062-.7.1-1.265s.082-1.028.133-1.378l4.112.75a23.444,23.444,0,0,1-.267,3.187,7.862,7.862,0,0,1-.72,2.3,5.234,5.234,0,0,1-1.213,1.573,5.849,5.849,0,0,1-1.881.956,12.4,12.4,0,0,1-2.611.493c-.956.082-2.128.123-3.526.123a30.963,30.963,0,0,1-4.677-.308,21.655,21.655,0,0,1-3.4-.771,5.14,5.14,0,0,1-2.334-1.491,11.6,11.6,0,0,1-1.439-1.974,7.9,7.9,0,0,1-.761-2.776c-.164-1.213-.267-2.323-.308-3.32s-.072-2.375-.072-4.112c0-2.477,0-4.4.092-5.777a26.353,26.353,0,0,1,.524-4.112,7.6,7.6,0,0,1,1.162-3.022,7.053,7.053,0,0,1,2.149-1.748,8.842,8.842,0,0,1,3.362-1.028,43.074,43.074,0,0,1,4.924-.226q2.056,0,3.577.123a12.587,12.587,0,0,1,2.776.493,9.124,9.124,0,0,1,2.056.864,4.524,4.524,0,0,1,1.449,1.419,8.226,8.226,0,0,1,.966,1.953,14.4,14.4,0,0,1,.555,2.673c.144,1.12.226,2.241.267,3.382S168.952,133.995,168.952,135.7Zm-18.638-2.447h13.364q-.062-3.454-.278-6.3a2.324,2.324,0,0,0-1.408-2.19,13.859,13.859,0,0,0-4.78-.555,16.222,16.222,0,0,0-4.862.432,1.779,1.779,0,0,0-.792.473,2.5,2.5,0,0,0-.555.956,10.713,10.713,0,0,0-.339,1.151,10,10,0,0,0-.185,1.5c0,.637-.072,1.121-.093,1.47s0,.884,0,1.6S150.315,133,150.315,133.255Z" transform="translate(4.057 -109.549)" fill="#404040"></path>
        <path d="M180.794,151.151H175.5V111.172l5.294-.432Z" transform="translate(4.911 -109.825)" fill="#404040"></path>
        <path d="M200.458,151.277a41.623,41.623,0,0,1-4.975-.247A8.932,8.932,0,0,1,192.059,150a7.658,7.658,0,0,1-2.2-1.748,7.044,7.044,0,0,1-1.182-2.93,24.3,24.3,0,0,1-.524-3.968c-.062-1.316-.092-3.084-.092-5.469,0-1.737,0-3.187.072-4.359a31.156,31.156,0,0,1,.308-3.423,14.156,14.156,0,0,1,.607-2.724,7.265,7.265,0,0,1,1.028-1.964,4.842,4.842,0,0,1,1.542-1.408,9.76,9.76,0,0,1,2.19-.843,14.689,14.689,0,0,1,2.909-.483c1.028-.082,2.3-.123,3.752-.123a34.239,34.239,0,0,1,3.752.123,14.689,14.689,0,0,1,2.909.483,9.757,9.757,0,0,1,2.19.843,4.986,4.986,0,0,1,1.552,1.408,7.88,7.88,0,0,1,1.028,1.964,15.078,15.078,0,0,1,.6,2.724,33.889,33.889,0,0,1,.319,3.423c0,1.172.062,2.621.062,4.359,0,2.334,0,4.112-.092,5.469a24.31,24.31,0,0,1-.524,3.968,7.2,7.2,0,0,1-1.193,2.94,7.649,7.649,0,0,1-2.21,1.748,8.985,8.985,0,0,1-3.433,1.028A41.85,41.85,0,0,1,200.458,151.277Zm.062-3.711a21.3,21.3,0,0,0,5.315-.565,1.9,1.9,0,0,0,1.491-1.912q.288-3.835.3-8.9c0-1.11-.051-2.7-.144-4.78s-.134-3.608-.134-4.616a2.22,2.22,0,0,0-.144-.833,1.438,1.438,0,0,0-.483-.627,5.085,5.085,0,0,0-.678-.442,2.775,2.775,0,0,0-.936-.3l-1.028-.185a7.273,7.273,0,0,0-1.182-.113h-4.77a7.273,7.273,0,0,0-1.182.113l-1.028.185a2.776,2.776,0,0,0-.936.3,5.081,5.081,0,0,0-.678.442,1.439,1.439,0,0,0-.483.627,2.222,2.222,0,0,0-.144.833c0,1.028,0,2.549-.134,4.616s-.134,3.67-.134,4.78q0,5.058.288,8.9a1.974,1.974,0,0,0,1.573,1.953A18.718,18.718,0,0,0,200.519,147.566Z" transform="translate(5.263 -109.55)" fill="#404040"></path>
        <path d="M243.66,136.321c0,1.645,0,3.084-.093,4.194a33.931,33.931,0,0,1-.349,3.413,10.216,10.216,0,0,1-.75,2.776,8.954,8.954,0,0,1-1.3,2.056,5.14,5.14,0,0,1-1.943,1.46,12.766,12.766,0,0,1-2.724.8,20.937,20.937,0,0,1-3.629.278q-7.114,0-8.121-3.177V160.9l-5.3.411V121.364h4.821l.5,3.249q1.655-4.112,8.615-4.112a24.889,24.889,0,0,1,2.591.123,9.253,9.253,0,0,1,2.128.442,12.071,12.071,0,0,1,1.7.7,4.48,4.48,0,0,1,1.316,1.028,9.467,9.467,0,0,1,1.028,1.336,6.851,6.851,0,0,1,.679,1.706,21.048,21.048,0,0,1,.463,2.056,23.449,23.449,0,0,1,.267,2.436c.062.956.1,1.881.123,2.765S243.66,135.067,243.66,136.321Zm-5.294-1.748q-.062-5.407-.164-7.2a2.745,2.745,0,0,0-1.408-2.529,13.427,13.427,0,0,0-5.14-.648c-3.248,0-5.335.514-6.25,1.563-.494.73-.751,2.878-.751,6.425v6.291c0,.648,0,1.429-.072,2.416s-.062,1.676-.062,2.056a5.354,5.354,0,0,0,.524,2.591,3.659,3.659,0,0,0,2.056,1.491,13.932,13.932,0,0,0,4.431.545,14.577,14.577,0,0,0,5.294-.637c1.028-.473,1.48-2.878,1.48-7.2V137a23.092,23.092,0,0,0,.1-2.426Z" transform="translate(6.142 -109.552)" fill="#404040"></path>
        <path d="M273.483,135.7q-3.238.329-4.009.37H254.8q0,3.9.216,8.563a2.518,2.518,0,0,0,1.552,2.375,16.867,16.867,0,0,0,5.5.576,24.348,24.348,0,0,0,2.632-.113,6,6,0,0,0,1.789-.432,5.549,5.549,0,0,0,1.079-.6,1.644,1.644,0,0,0,.576-.884,6.032,6.032,0,0,0,.247-1.028c0-.278.072-.7.1-1.264s.082-1.028.133-1.378l4.112.75a25.189,25.189,0,0,1-.267,3.187,7.868,7.868,0,0,1-.73,2.3,4.929,4.929,0,0,1-1.213,1.573,5.738,5.738,0,0,1-1.881.956,12.263,12.263,0,0,1-2.611.493q-1.418.123-3.516.123a31.011,31.011,0,0,1-4.688-.308,21.926,21.926,0,0,1-3.4-.771,5.055,5.055,0,0,1-2.323-1.491,11.054,11.054,0,0,1-1.439-1.974,8.1,8.1,0,0,1-.771-2.776c-.165-1.213-.267-2.323-.308-3.32s-.072-2.375-.072-4.112c0-2.478,0-4.4.1-5.777a26.34,26.34,0,0,1,.524-4.112,7.609,7.609,0,0,1,1.151-3.022,7.052,7.052,0,0,1,2.149-1.748,8.841,8.841,0,0,1,3.372-1.028,42.936,42.936,0,0,1,4.924-.226q2.056,0,3.578.123a12.6,12.6,0,0,1,2.765.494,8.922,8.922,0,0,1,2.056.864,4.522,4.522,0,0,1,1.45,1.419,8.225,8.225,0,0,1,1.028,1.953,15.394,15.394,0,0,1,.545,2.673,33.535,33.535,0,0,1,.267,3.382C273.463,132.576,273.483,133.995,273.483,135.7Zm-18.648-2.447H268.2q0-3.454-.267-6.3a2.323,2.323,0,0,0-1.419-2.19,13.785,13.785,0,0,0-4.77-.555,16.252,16.252,0,0,0-4.873.432,1.9,1.9,0,0,0-.792.473,2.5,2.5,0,0,0-.555.956,10.569,10.569,0,0,0-.37,1.11,11.292,11.292,0,0,0-.2,1.5c0,.637-.072,1.121-.093,1.47s0,.884,0,1.6-.031,1.244-.031,1.5Z" transform="translate(6.984 -109.549)" fill="#404040"></path>
        <path d="M292.969,120.681l-.216,4.492a16.232,16.232,0,0,0-1.933-.134,10.594,10.594,0,0,0-3.084.38,3.216,3.216,0,0,0-1.789,1.3,5.259,5.259,0,0,0-.812,2.056,19.565,19.565,0,0,0-.2,3.135c0,.74,0,1.82.093,3.228s.092,2.436.092,3.084v12.675h-5.3V121.36h4.821l.535,3.31a6.435,6.435,0,0,1,2.529-3,7.5,7.5,0,0,1,4.061-1.028A9.748,9.748,0,0,1,292.969,120.681Z" transform="translate(7.833 -109.548)" fill="#404040"></path>
        <path d="M319.967,142.7a13.477,13.477,0,0,1-.566,4.235,5.374,5.374,0,0,1-1.871,2.632,7.945,7.945,0,0,1-3.177,1.336,23.981,23.981,0,0,1-4.718.38h-2.683c-.668,0-1.45-.062-2.324-.134a11.537,11.537,0,0,1-2.056-.329,13.947,13.947,0,0,1-1.686-.627,3.751,3.751,0,0,1-1.408-1.028,8.444,8.444,0,0,1-.966-1.45,6.026,6.026,0,0,1-.648-1.974,16.343,16.343,0,0,1-.185-2.591l4.163-1.028a17.485,17.485,0,0,0,.566,3.876,2.539,2.539,0,0,0,2.056,1.4,30,30,0,0,0,4.873.236,20.066,20.066,0,0,0,3.32-.2,2.138,2.138,0,0,0,1.47-.771c.719-.586,1.028-2.611,1.028-6.055a2.587,2.587,0,0,0-.329-1.326,2.272,2.272,0,0,0-.781-.833,4.236,4.236,0,0,0-1.275-.483,12.187,12.187,0,0,0-1.48-.278l-1.768-.226c-.72-.062-1.285-.134-1.717-.185-1.316-.144-2.375-.278-3.208-.411a19.182,19.182,0,0,1-2.5-.607,6.087,6.087,0,0,1-1.974-1.028,6.253,6.253,0,0,1-1.305-1.532,6.169,6.169,0,0,1-.833-2.262,17.489,17.489,0,0,1-.246-3.146,11.692,11.692,0,0,1,.4-3.29,5.992,5.992,0,0,1,1.182-2.231,5.294,5.294,0,0,1,2.138-1.388,13.87,13.87,0,0,1,3.084-.7,36.4,36.4,0,0,1,4.112-.2h2.508a17.012,17.012,0,0,1,2.159.185,8.7,8.7,0,0,1,1.892.422,6.861,6.861,0,0,1,1.47.75,3.412,3.412,0,0,1,1.141,1.193,7.386,7.386,0,0,1,.658,1.737,9.441,9.441,0,0,1,.257,2.344l-3.608,1.1c-.072-.7-.134-1.254-.2-1.655a3.084,3.084,0,0,0-.422-1.11,2.227,2.227,0,0,0-.668-.73,4.017,4.017,0,0,0-1.2-.38,11.858,11.858,0,0,0-1.707-.185h-2.478a10.763,10.763,0,0,0-4.667.689,2.374,2.374,0,0,0-1.224,2.251v2.735c0,1.193.349,1.943,1.028,2.251a28.024,28.024,0,0,0,5.7,1.028c.319.062.565.092.73.113,1.234.144,2.21.278,2.94.4s1.49.288,2.3.493a6.544,6.544,0,0,1,1.84.73,8.231,8.231,0,0,1,1.265,1.028,3.776,3.776,0,0,1,.915,1.593,16.407,16.407,0,0,1,.463,2.179A21.784,21.784,0,0,1,319.967,142.7Z" transform="translate(8.334 -109.552)" fill="#404040"></path>
      </g>
      <g transform="translate(0 0)">
        <path d="M194.39,32.271,162.119,0V19.23L179.1,36.156,160,55.285l2.152,2.077v14.95l32.238-32.2a5.541,5.541,0,0,0,0-7.845Z" transform="translate(-123.999)" fill="#404040"></path>
        <path d="M118.812,49.6l32.271,32.271V62.637L134.107,45.669l19.078-19.087-2.153-2.077V9.53L118.812,41.751a5.541,5.541,0,0,0,0,7.845Z" transform="translate(-117.185 -1.517)" fill="#f18700"></path>
      </g>
    </g>
  </g>
</svg>
